<?xml version='1.0' encoding='utf-8'?>
<svg xmlns="http://www.w3.org/2000/svg" width="900" height="420" viewBox="0 0 900 420">
  <defs>
    <marker id="arr" markerWidth="9" markerHeight="7" refX="8" refY="3.5" orient="auto">
      <polygon points="0 0, 9 3.5, 0 7" fill="#37474f" />
    </marker>
  </defs>
  <style>text { font-family: Arial, sans-serif; }</style>
  <rect x="0" y="0" width="900" height="420" fill="white" />
  <rect x="13.0" y="97.0" width="84" height="36" rx="18.0" fill="#1a3a6e" stroke="#1a3a6e" stroke-width="1.5" />
  <text x="55" y="115" text-anchor="middle" font-size="13" font-family="Arial, sans-serif" fill="white" font-weight="bold">Bắt đầu</text>
  <rect x="125.0" y="84.0" width="120" height="62" rx="7" fill="#edf7f0" stroke="#2d7a46" stroke-width="1.5" />
  <text x="185" y="107.0" text-anchor="middle" font-size="12" font-family="Arial, sans-serif" fill="#111">Quét đơn thuốc</text>
  <text x="185" y="123.0" text-anchor="middle" font-size="12" font-family="Arial, sans-serif" fill="#111">và nhận kết quả</text>
  <polygon points="315,80.0 370.0,115 315,150.0 260.0,115" fill="#fff8e1" stroke="#b7791f" stroke-width="1.5" />
  <text x="315" y="108.0" text-anchor="middle" font-size="12" font-family="Arial, sans-serif" fill="#111">Cần</text>
  <text x="315" y="122.0" text-anchor="middle" font-size="12" font-family="Arial, sans-serif" fill="#111">chỉnh sửa?</text>
  <rect x="400.0" y="84.0" width="120" height="62" rx="7" fill="#edf7f0" stroke="#2d7a46" stroke-width="1.5" />
  <text x="460" y="107.0" text-anchor="middle" font-size="12" font-family="Arial, sans-serif" fill="#111">Chọn ngày bắt đầu</text>
  <text x="460" y="123.0" text-anchor="middle" font-size="12" font-family="Arial, sans-serif" fill="#111">&amp; số ngày dùng</text>
  <rect x="535.0" y="84.0" width="120" height="62" rx="7" fill="#edf7f0" stroke="#2d7a46" stroke-width="1.5" />
  <text x="595" y="107.0" text-anchor="middle" font-size="12" font-family="Arial, sans-serif" fill="#111">Chọn khung giờ</text>
  <text x="595" y="123.0" text-anchor="middle" font-size="12" font-family="Arial, sans-serif" fill="#111">uống thuốc</text>
  <rect x="675.0" y="84.0" width="120" height="62" rx="7" fill="#edf7f0" stroke="#2d7a46" stroke-width="1.5" />
  <text x="735" y="107.0" text-anchor="middle" font-size="12" font-family="Arial, sans-serif" fill="#111">Nhập số</text>
  <text x="735" y="123.0" text-anchor="middle" font-size="12" font-family="Arial, sans-serif" fill="#111">viên / khung giờ</text>
  <rect x="255.0" y="274.0" width="120" height="62" rx="7" fill="#edf7f0" stroke="#2d7a46" stroke-width="1.5" />
  <text x="315" y="297.0" text-anchor="middle" font-size="12" font-family="Arial, sans-serif" fill="#111">Chỉnh sửa</text>
  <text x="315" y="313.0" text-anchor="middle" font-size="12" font-family="Arial, sans-serif" fill="#111">danh sách thuốc</text>
  <rect x="400.0" y="274.0" width="120" height="62" rx="7" fill="#edf7f0" stroke="#2d7a46" stroke-width="1.5" />
  <text x="460" y="297.0" text-anchor="middle" font-size="12" font-family="Arial, sans-serif" fill="#111">Lưu kế hoạch</text>
  <text x="460" y="313.0" text-anchor="middle" font-size="12" font-family="Arial, sans-serif" fill="#111">lên máy chủ</text>
  <rect x="535.0" y="274.0" width="120" height="62" rx="7" fill="#edf7f0" stroke="#2d7a46" stroke-width="1.5" />
  <text x="595" y="297.0" text-anchor="middle" font-size="12" font-family="Arial, sans-serif" fill="#111">Thiết lập thông báo</text>
  <text x="595" y="313.0" text-anchor="middle" font-size="12" font-family="Arial, sans-serif" fill="#111">nhắc uống thuốc</text>
  <rect x="698.0" y="287.0" width="84" height="36" rx="18.0" fill="#1a3a6e" stroke="#1a3a6e" stroke-width="1.5" />
  <text x="740" y="305" text-anchor="middle" font-size="13" font-family="Arial, sans-serif" fill="white" font-weight="bold">Kết thúc</text>
  <path d="M 97 115 L 125 115" fill="none" stroke="#37474f" stroke-width="1.5" marker-end="url(#arr)" />
  <path d="M 245 115 L 260 115" fill="none" stroke="#37474f" stroke-width="1.5" marker-end="url(#arr)" />
  <path d="M 370 115 L 400 115" fill="none" stroke="#37474f" stroke-width="1.5" marker-end="url(#arr)" />
  <text x="385.0" y="104" text-anchor="middle" font-size="11" font-family="Arial, sans-serif" fill="#555" font-style="italic">Không</text>
  <path d="M 520 115 L 535 115" fill="none" stroke="#37474f" stroke-width="1.5" marker-end="url(#arr)" />
  <path d="M 655 115 L 675 115" fill="none" stroke="#37474f" stroke-width="1.5" marker-end="url(#arr)" />
  <path d="M 735 146 L 735 210 L 460 210 L 460 274" fill="none" stroke="#37474f" stroke-width="1.5" marker-end="url(#arr)" />
  <path d="M 520 305 L 535 305" fill="none" stroke="#37474f" stroke-width="1.5" marker-end="url(#arr)" />
  <path d="M 655 305 L 698 305" fill="none" stroke="#37474f" stroke-width="1.5" marker-end="url(#arr)" />
  <path d="M 315 150 L 315 274" fill="none" stroke="#37474f" stroke-width="1.5" marker-end="url(#arr)" />
  <text x="343" y="212" text-anchor="middle" font-size="11" font-family="Arial, sans-serif" fill="#555" font-style="italic">Có</text>
  <path d="M 375 305 L 400 305" fill="none" stroke="#37474f" stroke-width="1.5" marker-end="url(#arr)" />
</svg>