<?xml version='1.0' encoding='utf-8'?>
<svg xmlns="http://www.w3.org/2000/svg" width="1020" height="260" viewBox="0 0 1020 260">
  <defs>
    <marker id="arr" markerWidth="8" markerHeight="6" refX="7" refY="3" orient="auto">
      <polygon points="0 0, 8 3, 0 6" fill="#455a64" />
    </marker>
  </defs>
  <rect x="0" y="0" width="1020" height="260" fill="white" />
  <style>text { font-family: Arial, sans-serif; }</style>
  <rect x="5.0" y="113.0" width="70" height="34" rx="17.0" fill="#2457a5" stroke="#2457a5" stroke-width="1.5" />
  <text x="40" y="130" text-anchor="middle" dominant-baseline="central" font-size="12" fill="white" font-weight="bold">Bắt đầu</text>
  <rect x="95.0" y="102.0" width="100" height="56" rx="6" fill="#f0f7f4" stroke="#2d7a46" stroke-width="1.3" />
  <text x="145" y="116.0" text-anchor="middle" dominant-baseline="central" font-size="11" fill="#111">Quét đơn</text>
  <text x="145" y="130.0" text-anchor="middle" dominant-baseline="central" font-size="11" fill="#111">thuốc &amp;</text>
  <text x="145" y="144.0" text-anchor="middle" dominant-baseline="central" font-size="11" fill="#111">nhận kết quả</text>
  <polygon points="270,102.0 315.0,130 270,158.0 225.0,130" fill="#fff8e1" stroke="#b7791f" stroke-width="1.3" />
  <text x="270" y="117.0" text-anchor="middle" dominant-baseline="central" font-size="10" fill="#111">Cần</text>
  <text x="270" y="130.0" text-anchor="middle" dominant-baseline="central" font-size="10" fill="#111">chỉnh</text>
  <text x="270" y="143.0" text-anchor="middle" dominant-baseline="central" font-size="10" fill="#111">sửa?</text>
  <rect x="220.0" y="172.0" width="100" height="56" rx="6" fill="#f0f7f4" stroke="#2d7a46" stroke-width="1.3" />
  <text x="270" y="186.0" text-anchor="middle" dominant-baseline="central" font-size="11" fill="#111">Chỉnh sửa</text>
  <text x="270" y="200.0" text-anchor="middle" dominant-baseline="central" font-size="11" fill="#111">danh sách</text>
  <text x="270" y="214.0" text-anchor="middle" dominant-baseline="central" font-size="11" fill="#111">thuốc</text>
  <rect x="350.0" y="102.0" width="100" height="56" rx="6" fill="#f0f7f4" stroke="#2d7a46" stroke-width="1.3" />
  <text x="400" y="123.0" text-anchor="middle" dominant-baseline="central" font-size="11" fill="#111">Chọn ngày</text>
  <text x="400" y="137.0" text-anchor="middle" dominant-baseline="central" font-size="11" fill="#111">&amp; số ngày</text>
  <rect x="460.0" y="102.0" width="100" height="56" rx="6" fill="#f0f7f4" stroke="#2d7a46" stroke-width="1.3" />
  <text x="510" y="123.0" text-anchor="middle" dominant-baseline="central" font-size="11" fill="#111">Chọn khung</text>
  <text x="510" y="137.0" text-anchor="middle" dominant-baseline="central" font-size="11" fill="#111">giờ uống</text>
  <rect x="570.0" y="102.0" width="100" height="56" rx="6" fill="#f0f7f4" stroke="#2d7a46" stroke-width="1.3" />
  <text x="620" y="116.0" text-anchor="middle" dominant-baseline="central" font-size="11" fill="#111">Nhập số</text>
  <text x="620" y="130.0" text-anchor="middle" dominant-baseline="central" font-size="11" fill="#111">viên/khung</text>
  <text x="620" y="144.0" text-anchor="middle" dominant-baseline="central" font-size="11" fill="#111">giờ</text>
  <rect x="680.0" y="102.0" width="100" height="56" rx="6" fill="#f0f7f4" stroke="#2d7a46" stroke-width="1.3" />
  <text x="730" y="123.0" text-anchor="middle" dominant-baseline="central" font-size="11" fill="#111">Lưu kế</text>
  <text x="730" y="137.0" text-anchor="middle" dominant-baseline="central" font-size="11" fill="#111">hoạch</text>
  <rect x="790.0" y="102.0" width="100" height="56" rx="6" fill="#f0f7f4" stroke="#2d7a46" stroke-width="1.3" />
  <text x="840" y="123.0" text-anchor="middle" dominant-baseline="central" font-size="11" fill="#111">Thông báo</text>
  <text x="840" y="137.0" text-anchor="middle" dominant-baseline="central" font-size="11" fill="#111">nhắc uống</text>
  <rect x="910.0" y="113.0" width="70" height="34" rx="17.0" fill="#2457a5" stroke="#2457a5" stroke-width="1.5" />
  <text x="945" y="130" text-anchor="middle" dominant-baseline="central" font-size="12" fill="white" font-weight="bold">Kết thúc</text>
  <path d="M 75.0 130 L 95.0 130" fill="none" stroke="#455a64" stroke-width="1.4" marker-end="url(#arr)" />
  <path d="M 195.0 130 L 225.0 130" fill="none" stroke="#455a64" stroke-width="1.4" marker-end="url(#arr)" />
  <path d="M 315.0 130 L 350.0 130" fill="none" stroke="#455a64" stroke-width="1.4" marker-end="url(#arr)" />
  <text x="332.5" y="122" text-anchor="middle" font-size="10" fill="#555" font-style="italic">Không</text>
  <path d="M 270 158.0 L 270 172.0" fill="none" stroke="#455a64" stroke-width="1.4" marker-end="url(#arr)" />
  <text x="290" y="178.0" text-anchor="middle" font-size="10" fill="#555" font-style="italic">Có</text>
  <path d="M 320.0 200 L 360.0 163.0" fill="none" stroke="#455a64" stroke-width="1.4" marker-end="url(#arr)" />
  <path d="M 450.0 130 L 460.0 130" fill="none" stroke="#455a64" stroke-width="1.4" marker-end="url(#arr)" />
  <path d="M 560.0 130 L 570.0 130" fill="none" stroke="#455a64" stroke-width="1.4" marker-end="url(#arr)" />
  <path d="M 670.0 130 L 680.0 130" fill="none" stroke="#455a64" stroke-width="1.4" marker-end="url(#arr)" />
  <path d="M 780.0 130 L 790.0 130" fill="none" stroke="#455a64" stroke-width="1.4" marker-end="url(#arr)" />
  <path d="M 890.0 130 L 910.0 130" fill="none" stroke="#455a64" stroke-width="1.4" marker-end="url(#arr)" />
</svg>