<?xml version='1.0' encoding='utf-8'?>
<svg xmlns="http://www.w3.org/2000/svg" width="780" height="680" viewBox="0 0 780 680">
  <defs>
    <marker id="arr" markerWidth="8" markerHeight="6" refX="7" refY="3" orient="auto">
      <polygon points="0 0, 8 3, 0 6" fill="#455a64" />
    </marker>
  </defs>
  <rect x="0" y="0" width="780" height="680" fill="white" />
  <style>text { font-family: Arial, sans-serif; }</style>
  <rect x="320" y="30" width="140" height="36" rx="18" fill="#fff7e8" stroke="#b7791f" stroke-width="1.8" />
  <text x="390" y="53" text-anchor="middle" font-size="13" font-family="Arial, sans-serif" fill="#7a4512" font-weight="bold">Người dùng</text>
  <rect x="40" y="100" width="700" height="130" rx="8" fill="#eef7ff" stroke="#4a90d9" stroke-width="1.5" />
  <text x="50" y="118" text-anchor="start" font-size="12" font-family="Arial, sans-serif" fill="#2457a5" font-weight="bold">Tầng 1 — Ứng dụng di động (Flutter)</text>
  <rect x="60" y="135" width="150" height="70" rx="5" fill="#d6eaff" stroke="#4a90d9" stroke-width="1.5" />
  <text x="135.0" y="170.0" text-anchor="middle" font-size="11" font-family="Arial, sans-serif" fill="#111">Quét đơn thuốc</text>
  <rect x="230" y="135" width="150" height="70" rx="5" fill="#d6eaff" stroke="#4a90d9" stroke-width="1.5" />
  <text x="305.0" y="170.0" text-anchor="middle" font-size="11" font-family="Arial, sans-serif" fill="#111">Rà soát danh sách</text>
  <rect x="400" y="135" width="150" height="70" rx="5" fill="#d6eaff" stroke="#4a90d9" stroke-width="1.5" />
  <text x="475.0" y="170.0" text-anchor="middle" font-size="11" font-family="Arial, sans-serif" fill="#111">Lập lịch dùng thuốc</text>
  <rect x="570" y="135" width="150" height="70" rx="5" fill="#d6eaff" stroke="#4a90d9" stroke-width="1.5" />
  <text x="645.0" y="170.0" text-anchor="middle" font-size="11" font-family="Arial, sans-serif" fill="#111">Xem lịch hôm nay</text>
  <rect x="40" y="270" width="700" height="130" rx="8" fill="#f0fff4" stroke="#2d7a46" stroke-width="1.5" />
  <text x="50" y="288" text-anchor="start" font-size="12" font-family="Arial, sans-serif" fill="#1a5c32" font-weight="bold">Tầng 2 — Máy chủ chính (Node.js / Express)</text>
  <rect x="60" y="305" width="150" height="70" rx="5" fill="#c3f0d0" stroke="#2d7a46" stroke-width="1.5" />
  <text x="135.0" y="332.5" text-anchor="middle" font-size="11" font-family="Arial, sans-serif" fill="#111">Xác thực</text>
  <text x="135.0" y="347.5" text-anchor="middle" font-size="11" font-family="Arial, sans-serif" fill="#111">người dùng</text>
  <rect x="230" y="305" width="150" height="70" rx="5" fill="#c3f0d0" stroke="#2d7a46" stroke-width="1.5" />
  <text x="305.0" y="332.5" text-anchor="middle" font-size="11" font-family="Arial, sans-serif" fill="#111">Lịch sử</text>
  <text x="305.0" y="347.5" text-anchor="middle" font-size="11" font-family="Arial, sans-serif" fill="#111">quét</text>
  <rect x="400" y="305" width="150" height="70" rx="5" fill="#c3f0d0" stroke="#2d7a46" stroke-width="1.5" />
  <text x="475.0" y="332.5" text-anchor="middle" font-size="11" font-family="Arial, sans-serif" fill="#111">Quản lý</text>
  <text x="475.0" y="347.5" text-anchor="middle" font-size="11" font-family="Arial, sans-serif" fill="#111">kế hoạch</text>
  <rect x="570" y="305" width="150" height="70" rx="5" fill="#c3f0d0" stroke="#2d7a46" stroke-width="1.5" />
  <text x="645.0" y="332.5" text-anchor="middle" font-size="11" font-family="Arial, sans-serif" fill="#111">Nhật ký</text>
  <text x="645.0" y="347.5" text-anchor="middle" font-size="11" font-family="Arial, sans-serif" fill="#111">uống thuốc</text>
  <rect x="40" y="440" width="700" height="130" rx="8" fill="#fff8e1" stroke="#b7791f" stroke-width="1.5" />
  <text x="50" y="458" text-anchor="start" font-size="12" font-family="Arial, sans-serif" fill="#7a4512" font-weight="bold">Tầng 3 — Dịch vụ AI (FastAPI / GPU)</text>
  <rect x="60" y="475" width="150" height="70" rx="5" fill="#fff0c0" stroke="#b7791f" stroke-width="1.5" />
  <text x="135.0" y="502.5" text-anchor="middle" font-size="10" font-family="Arial, sans-serif" fill="#111">YOLO</text>
  <text x="135.0" y="517.5" text-anchor="middle" font-size="10" font-family="Arial, sans-serif" fill="#111">Detect</text>
  <rect x="230" y="475" width="150" height="70" rx="5" fill="#fff0c0" stroke="#b7791f" stroke-width="1.5" />
  <text x="305.0" y="495.0" text-anchor="middle" font-size="10" font-family="Arial, sans-serif" fill="#111">OCR</text>
  <text x="305.0" y="510.0" text-anchor="middle" font-size="10" font-family="Arial, sans-serif" fill="#111">(PaddleOCR</text>
  <text x="305.0" y="525.0" text-anchor="middle" font-size="10" font-family="Arial, sans-serif" fill="#111">+VietOCR)</text>
  <rect x="400" y="475" width="150" height="70" rx="5" fill="#fff0c0" stroke="#b7791f" stroke-width="1.5" />
  <text x="475.0" y="502.5" text-anchor="middle" font-size="10" font-family="Arial, sans-serif" fill="#111">NER</text>
  <text x="475.0" y="517.5" text-anchor="middle" font-size="10" font-family="Arial, sans-serif" fill="#111">(PhoBERT)</text>
  <rect x="570" y="475" width="150" height="70" rx="5" fill="#fff0c0" stroke="#b7791f" stroke-width="1.5" />
  <text x="645.0" y="502.5" text-anchor="middle" font-size="10" font-family="Arial, sans-serif" fill="#111">Tra cứu</text>
  <text x="645.0" y="517.5" text-anchor="middle" font-size="10" font-family="Arial, sans-serif" fill="#111">thuốc</text>
  <ellipse cx="220" cy="590.0" rx="68" ry="14" fill="#f0f4ff" stroke="#2457a5" stroke-width="1.5" />
  <rect x="152" y="590.0" width="136" height="40" fill="#f0f4ff" stroke="none" />
  <line x1="152" y1="590.0" x2="152" y2="630.0" stroke="#2457a5" stroke-width="1.5" />
  <line x1="288" y1="590.0" x2="288" y2="630.0" stroke="#2457a5" stroke-width="1.5" />
  <ellipse cx="220" cy="630.0" rx="68" ry="14" fill="#f0f4ff" stroke="#2457a5" stroke-width="1.5" />
  <text x="220" y="610.0" text-anchor="middle" font-size="11" font-family="Arial, sans-serif" fill="#111">PostgreSQL</text>
  <ellipse cx="560" cy="590.0" rx="90" ry="14" fill="#f0f4ff" stroke="#2457a5" stroke-width="1.5" />
  <rect x="470" y="590.0" width="180" height="40" fill="#f0f4ff" stroke="none" />
  <line x1="470" y1="590.0" x2="470" y2="630.0" stroke="#2457a5" stroke-width="1.5" />
  <line x1="650" y1="590.0" x2="650" y2="630.0" stroke="#2457a5" stroke-width="1.5" />
  <ellipse cx="560" cy="630.0" rx="90" ry="14" fill="#f0f4ff" stroke="#2457a5" stroke-width="1.5" />
  <text x="560" y="610.0" text-anchor="middle" font-size="11" font-family="Arial, sans-serif" fill="#111">CSDL thuốc &amp; Mô hình AI</text>
  <path d="M 390 66 L 390 100" fill="none" stroke="#455a64" stroke-width="1.4" marker-end="url(#arr)" />
  <path d="M 375 230 L 375 270" fill="none" stroke="#455a64" stroke-width="1.4" marker-end="url(#arr)" />
  <path d="M 405 270 L 405 230" fill="none" stroke="#455a64" stroke-width="1.4" marker-end="url(#arr)" />
  <path d="M 375 400 L 375 440" fill="none" stroke="#455a64" stroke-width="1.4" marker-end="url(#arr)" />
  <path d="M 405 440 L 405 400" fill="none" stroke="#455a64" stroke-width="1.4" marker-end="url(#arr)" />
  <path d="M 220 400 L 220 556" fill="none" stroke="#455a64" stroke-width="1.4" marker-end="url(#arr)" />
  <path d="M 560 570 L 560 556" fill="none" stroke="#455a64" stroke-width="1.4" marker-end="url(#arr)" />
</svg>