<?xml version='1.0' encoding='utf-8'?>
<svg xmlns="http://www.w3.org/2000/svg" width="860" height="800" viewBox="0 0 860 800">
  <defs>
    <marker id="arr" markerWidth="9" markerHeight="7" refX="8" refY="3.5" orient="auto">
      <polygon points="0 0, 9 3.5, 0 7" fill="#37474f" />
    </marker>
  </defs>
  <style>text { font-family: Arial, sans-serif; }</style>
  <rect x="0" y="0" width="860" height="800" fill="white" />
  <rect x="190.0" y="35.0" width="240" height="40" rx="20.0" fill="#1a3a6e" stroke="#1a3a6e" stroke-width="1.5" />
  <text x="310" y="56" text-anchor="middle" font-size="14" font-family="Arial, sans-serif" fill="white" font-weight="bold">Ảnh đơn thuốc đầu vào</text>
  <rect x="145.0" y="110.0" width="330" height="70" rx="7" fill="#edf7f0" stroke="#2d7a46" stroke-width="1.7" />
  <text x="310" y="136.0" text-anchor="middle" font-size="13" font-family="Arial, sans-serif" fill="#111">Bước 1: Phát hiện và cắt vùng đơn thuốc</text>
  <text x="310" y="154.0" text-anchor="middle" font-size="13" font-family="Arial, sans-serif" fill="#111">(YOLO Detect — Convex Hull Crop)</text>
  <rect x="145.0" y="205.0" width="330" height="70" rx="7" fill="#edf7f0" stroke="#2d7a46" stroke-width="1.7" />
  <text x="310" y="231.0" text-anchor="middle" font-size="13" font-family="Arial, sans-serif" fill="#111">Bước 2: Tiền xử lý ảnh</text>
  <text x="310" y="249.0" text-anchor="middle" font-size="13" font-family="Arial, sans-serif" fill="#111">(Chỉnh nghiêng Modulo 90 + Căn hướng AI)</text>
  <polygon points="310,302.0 420.0,340 310,378.0 200.0,340" fill="#fff8e1" stroke="#b7791f" stroke-width="1.7" />
  <text x="310" y="332.0" text-anchor="middle" font-size="13" font-family="Arial, sans-serif" fill="#111">Kiểm tra</text>
  <text x="310" y="348.0" text-anchor="middle" font-size="13" font-family="Arial, sans-serif" fill="#111">chất lượng ảnh</text>
  <rect x="515.0" y="309.0" width="230" height="62" rx="7" fill="#fff3f3" stroke="#c53030" stroke-width="1.7" />
  <text x="630" y="331.0" text-anchor="middle" font-size="13" font-family="Arial, sans-serif" fill="#111">Từ chối —</text>
  <text x="630" y="349.0" text-anchor="middle" font-size="13" font-family="Arial, sans-serif" fill="#111">Yêu cầu chụp lại</text>
  <rect x="145.0" y="405.0" width="330" height="70" rx="7" fill="#edf7f0" stroke="#2d7a46" stroke-width="1.7" />
  <text x="310" y="431.0" text-anchor="middle" font-size="13" font-family="Arial, sans-serif" fill="#111">Bước 3: Nhận dạng ký tự quang học</text>
  <text x="310" y="449.0" text-anchor="middle" font-size="13" font-family="Arial, sans-serif" fill="#111">(PaddleOCR + VietOCR)</text>
  <rect x="145.0" y="500.0" width="330" height="70" rx="7" fill="#edf7f0" stroke="#2d7a46" stroke-width="1.7" />
  <text x="310" y="526.0" text-anchor="middle" font-size="13" font-family="Arial, sans-serif" fill="#111">Bước 4: Trích xuất tên thuốc</text>
  <text x="310" y="544.0" text-anchor="middle" font-size="13" font-family="Arial, sans-serif" fill="#111">(PhoBERT NER)</text>
  <rect x="145.0" y="595.0" width="330" height="70" rx="7" fill="#edf7f0" stroke="#2d7a46" stroke-width="1.7" />
  <text x="310" y="621.0" text-anchor="middle" font-size="13" font-family="Arial, sans-serif" fill="#111">Bước 5: Tra cứu và chuẩn hóa tên thuốc</text>
  <text x="310" y="639.0" text-anchor="middle" font-size="13" font-family="Arial, sans-serif" fill="#111">(Cơ sở dữ liệu 9.284 thuốc Việt Nam)</text>
  <rect x="145.0" y="690.0" width="330" height="60" rx="7" fill="#dbeafe" stroke="#2457a5" stroke-width="1.7" />
  <text x="310" y="720.0" text-anchor="middle" font-size="13" font-family="Arial, sans-serif" fill="#111">Danh sách thuốc — Rà soát và Lập lịch</text>
  <path d="M 310 75 L 310 110" fill="none" stroke="#37474f" stroke-width="1.6" marker-end="url(#arr)" />
  <path d="M 310 180 L 310 205" fill="none" stroke="#37474f" stroke-width="1.6" marker-end="url(#arr)" />
  <path d="M 310 275 L 310 302" fill="none" stroke="#37474f" stroke-width="1.6" marker-end="url(#arr)" />
  <path d="M 310 378 L 310 405" fill="none" stroke="#37474f" stroke-width="1.6" marker-end="url(#arr)" />
  <text x="342.0" y="391.5" text-anchor="middle" font-size="12" font-family="Arial, sans-serif" fill="#555" font-style="italic">Đạt yêu cầu</text>
  <path d="M 420 340 L 515 340" fill="none" stroke="#37474f" stroke-width="1.6" marker-end="url(#arr)" />
  <text x="467.5" y="328" text-anchor="middle" font-size="12" font-family="Arial, sans-serif" fill="#555" font-style="italic">Quá mờ / chói</text>
  <path d="M 310 475 L 310 500" fill="none" stroke="#37474f" stroke-width="1.6" marker-end="url(#arr)" />
  <path d="M 310 570 L 310 595" fill="none" stroke="#37474f" stroke-width="1.6" marker-end="url(#arr)" />
  <path d="M 310 665 L 310 690" fill="none" stroke="#37474f" stroke-width="1.6" marker-end="url(#arr)" />
</svg>