<?xml version='1.0' encoding='utf-8'?>
<svg xmlns="http://www.w3.org/2000/svg" width="740" height="800" viewBox="0 0 740 800">
  <defs>
    <marker id="arr" markerWidth="9" markerHeight="7" refX="8" refY="3.5" orient="auto">
      <polygon points="0 0, 9 3.5, 0 7" fill="#37474f" />
    </marker>
  </defs>
  <style>text { font-family: Arial, sans-serif; }</style>
  <rect x="0" y="0" width="740" height="800" fill="white" />
  <rect x="180.0" y="42.0" width="220" height="36" rx="18.0" fill="#1a3a6e" stroke="#1a3a6e" stroke-width="1.5" />
  <text x="290" y="60" text-anchor="middle" font-size="13" font-family="Arial, sans-serif" fill="white" font-weight="bold">Ảnh đơn thuốc đầu vào</text>
  <rect x="140.0" y="124.0" width="300" height="62" rx="7" fill="#edf7f0" stroke="#2d7a46" stroke-width="1.6" />
  <text x="290" y="147.0" text-anchor="middle" font-size="12" font-family="Arial, sans-serif" fill="#111">Bước 1: Phát hiện và cắt vùng đơn thuốc</text>
  <text x="290" y="163.0" text-anchor="middle" font-size="12" font-family="Arial, sans-serif" fill="#111">(YOLO Detect — Convex Hull Crop)</text>
  <rect x="140.0" y="224.0" width="300" height="62" rx="7" fill="#edf7f0" stroke="#2d7a46" stroke-width="1.6" />
  <text x="290" y="247.0" text-anchor="middle" font-size="12" font-family="Arial, sans-serif" fill="#111">Bước 2: Tiền xử lý ảnh</text>
  <text x="290" y="263.0" text-anchor="middle" font-size="12" font-family="Arial, sans-serif" fill="#111">(Chỉnh nghiêng Modulo 90 + Căn hướng AI)</text>
  <polygon points="290,320.0 395.0,355 290,390.0 185.0,355" fill="#fff8e1" stroke="#b7791f" stroke-width="1.6" />
  <text x="290" y="347.5" text-anchor="middle" font-size="12" font-family="Arial, sans-serif" fill="#111">Kiểm tra</text>
  <text x="290" y="362.5" text-anchor="middle" font-size="12" font-family="Arial, sans-serif" fill="#111">chất lượng ảnh</text>
  <rect x="460.0" y="327.0" width="220" height="56" rx="7" fill="#fff3f3" stroke="#c53030" stroke-width="1.6" />
  <text x="570" y="347.0" text-anchor="middle" font-size="12" font-family="Arial, sans-serif" fill="#111">Từ chối —</text>
  <text x="570" y="363.0" text-anchor="middle" font-size="12" font-family="Arial, sans-serif" fill="#111">Yêu cầu chụp lại</text>
  <rect x="140.0" y="429.0" width="300" height="62" rx="7" fill="#edf7f0" stroke="#2d7a46" stroke-width="1.6" />
  <text x="290" y="452.0" text-anchor="middle" font-size="12" font-family="Arial, sans-serif" fill="#111">Bước 3: Nhận dạng ký tự quang học</text>
  <text x="290" y="468.0" text-anchor="middle" font-size="12" font-family="Arial, sans-serif" fill="#111">(PaddleOCR + VietOCR)</text>
  <rect x="140.0" y="524.0" width="300" height="62" rx="7" fill="#edf7f0" stroke="#2d7a46" stroke-width="1.6" />
  <text x="290" y="547.0" text-anchor="middle" font-size="12" font-family="Arial, sans-serif" fill="#111">Bước 4: Trích xuất tên thuốc</text>
  <text x="290" y="563.0" text-anchor="middle" font-size="12" font-family="Arial, sans-serif" fill="#111">(PhoBERT NER)</text>
  <rect x="140.0" y="619.0" width="300" height="62" rx="7" fill="#edf7f0" stroke="#2d7a46" stroke-width="1.6" />
  <text x="290" y="642.0" text-anchor="middle" font-size="12" font-family="Arial, sans-serif" fill="#111">Bước 5: Tra cứu và chuẩn hóa</text>
  <text x="290" y="658.0" text-anchor="middle" font-size="12" font-family="Arial, sans-serif" fill="#111">(Cơ sở dữ liệu 9.284 thuốc)</text>
  <rect x="140.0" y="702.0" width="300" height="56" rx="7" fill="#dbeafe" stroke="#2457a5" stroke-width="1.6" />
  <text x="290" y="730.0" text-anchor="middle" font-size="12" font-family="Arial, sans-serif" fill="#111">Danh sách thuốc — Rà soát và Lập lịch</text>
  <path d="M 290 78 L 290 124" fill="none" stroke="#37474f" stroke-width="1.5" marker-end="url(#arr)" />
  <path d="M 290 186 L 290 224" fill="none" stroke="#37474f" stroke-width="1.5" marker-end="url(#arr)" />
  <path d="M 290 286 L 290 320" fill="none" stroke="#37474f" stroke-width="1.5" marker-end="url(#arr)" />
  <path d="M 290 390 L 290 429" fill="none" stroke="#37474f" stroke-width="1.5" marker-end="url(#arr)" />
  <text x="318.0" y="409.5" text-anchor="middle" font-size="11" font-family="Arial, sans-serif" fill="#555" font-style="italic">Đạt yêu cầu</text>
  <path d="M 395 355 L 460 355" fill="none" stroke="#37474f" stroke-width="1.5" marker-end="url(#arr)" />
  <text x="430.0" y="343" text-anchor="middle" font-size="11" font-family="Arial, sans-serif" fill="#555" font-style="italic">Quá mờ / chói</text>
  <path d="M 290 491 L 290 524" fill="none" stroke="#37474f" stroke-width="1.5" marker-end="url(#arr)" />
  <path d="M 290 586 L 290 619" fill="none" stroke="#37474f" stroke-width="1.5" marker-end="url(#arr)" />
  <path d="M 290 681 L 290 702" fill="none" stroke="#37474f" stroke-width="1.5" marker-end="url(#arr)" />
</svg>