<?xml version='1.0' encoding='utf-8'?>
<svg xmlns="http://www.w3.org/2000/svg" width="1100" height="920" viewBox="0 0 1100 920">
  <defs>
    <marker id="arr" markerWidth="9" markerHeight="7" refX="8" refY="3.5" orient="auto">
      <polygon points="0 0, 9 3.5, 0 7" fill="#37474f" />
    </marker>
    <marker id="arr-open" markerWidth="9" markerHeight="7" refX="8" refY="3.5" orient="auto">
      <path d="M 0 0 L 9 3.5 L 0 7" fill="none" stroke="#37474f" stroke-width="1.6" />
    </marker>
  </defs>
  <style>text { font-family: Arial, sans-serif; }</style>
  <rect x="0" y="0" width="1100" height="920" fill="white" />
  <rect x="-4" y="18" width="148" height="58" rx="6" fill="#fff7e8" stroke="#b7791f" stroke-width="2" />
  <text x="70" y="48.0" text-anchor="middle" font-size="14" font-family="Arial, sans-serif" fill="#7a4512" font-weight="bold">Người dùng</text>
  <line x1="70" y1="76" x2="70" y2="896" stroke="#bbbbbb" stroke-width="1.3" stroke-dasharray="6,4" />
  <rect x="194" y="18" width="148" height="58" rx="6" fill="#e8f3fd" stroke="#3a7ec9" stroke-width="2" />
  <text x="268" y="39.0" text-anchor="middle" font-size="14" font-family="Arial, sans-serif" fill="#1a4a80" font-weight="bold">Ứng dụng</text>
  <text x="268" y="57.0" text-anchor="middle" font-size="14" font-family="Arial, sans-serif" fill="#1a4a80" font-weight="bold">di động</text>
  <line x1="268" y1="76" x2="268" y2="896" stroke="#bbbbbb" stroke-width="1.3" stroke-dasharray="6,4" />
  <rect x="416" y="18" width="148" height="58" rx="6" fill="#edfaf3" stroke="#2d7a46" stroke-width="2" />
  <text x="490" y="39.0" text-anchor="middle" font-size="14" font-family="Arial, sans-serif" fill="#1a5c32" font-weight="bold">Máy chủ</text>
  <text x="490" y="57.0" text-anchor="middle" font-size="14" font-family="Arial, sans-serif" fill="#1a5c32" font-weight="bold">Node.js</text>
  <line x1="490" y1="76" x2="490" y2="896" stroke="#bbbbbb" stroke-width="1.3" stroke-dasharray="6,4" />
  <rect x="656" y="18" width="148" height="58" rx="6" fill="#fffbec" stroke="#c49a00" stroke-width="2" />
  <text x="730" y="39.0" text-anchor="middle" font-size="14" font-family="Arial, sans-serif" fill="#7a5c00" font-weight="bold">Dịch vụ AI</text>
  <text x="730" y="57.0" text-anchor="middle" font-size="14" font-family="Arial, sans-serif" fill="#7a5c00" font-weight="bold">(FastAPI)</text>
  <line x1="730" y1="76" x2="730" y2="896" stroke="#bbbbbb" stroke-width="1.3" stroke-dasharray="6,4" />
  <rect x="936" y="18" width="148" height="58" rx="6" fill="#eef2ff" stroke="#2457a5" stroke-width="2" />
  <text x="1010" y="48.0" text-anchor="middle" font-size="14" font-family="Arial, sans-serif" fill="#1a337a" font-weight="bold">PostgreSQL</text>
  <line x1="1010" y1="76" x2="1010" y2="896" stroke="#bbbbbb" stroke-width="1.3" stroke-dasharray="6,4" />
  <rect x="484" y="218" width="12" height="530" fill="#cde5ff" stroke="#3a7ec9" stroke-width="1" opacity="0.7" />
  <rect x="724" y="276" width="12" height="356" fill="#cde5ff" stroke="#3a7ec9" stroke-width="1" opacity="0.7" />
  <rect x="64" y="102" width="12" height="52" fill="#cde5ff" stroke="#3a7ec9" stroke-width="1" />
  <line x1="70" y1="106" x2="268" y2="106" stroke="#37474f" stroke-width="1.5" stroke-dasharray="none" marker-end="url(#arr)" />
  <text x="169.0" y="97" text-anchor="middle" font-size="13" font-family="Arial, sans-serif" fill="#1a1a2e">Chụp hoặc chọn ảnh đơn thuốc</text>
  <circle cx="86" cy="106" r="12" fill="#1a3a6e" />
  <text x="86" y="107" text-anchor="middle" font-size="11" font-family="Arial, sans-serif" fill="white" font-weight="bold">1</text>
  <path d="M 268 156 L 316 156 L 316 188 L 268 188" fill="none" stroke="#37474f" stroke-width="1.5" marker-end="url(#arr)" />
  <text x="324" y="172" text-anchor="start" font-size="12" font-family="Arial, sans-serif" fill="#1a1a2e">Kiểm tra chất lượng ảnh cục bộ</text>
  <circle cx="248" cy="164" r="12" fill="#1a3a6e" />
  <text x="248" y="165" text-anchor="middle" font-size="11" font-family="Arial, sans-serif" fill="white" font-weight="bold">2</text>
  <rect x="262" y="218" width="12" height="52" fill="#cde5ff" stroke="#3a7ec9" stroke-width="1" />
  <line x1="268" y1="222" x2="490" y2="222" stroke="#37474f" stroke-width="1.5" stroke-dasharray="none" marker-end="url(#arr)" />
  <text x="379.0" y="213" text-anchor="middle" font-size="13" font-family="Arial, sans-serif" fill="#1a1a2e">Gửi ảnh lên API quét đơn</text>
  <circle cx="284" cy="222" r="12" fill="#1a3a6e" />
  <text x="284" y="223" text-anchor="middle" font-size="11" font-family="Arial, sans-serif" fill="white" font-weight="bold">3</text>
  <rect x="484" y="276" width="12" height="52" fill="#cde5ff" stroke="#3a7ec9" stroke-width="1" />
  <line x1="490" y1="280" x2="730" y2="280" stroke="#37474f" stroke-width="1.5" stroke-dasharray="none" marker-end="url(#arr)" />
  <text x="610.0" y="271" text-anchor="middle" font-size="13" font-family="Arial, sans-serif" fill="#1a1a2e">Chuyển tiếp ảnh đến dịch vụ AI</text>
  <circle cx="506" cy="280" r="12" fill="#1a3a6e" />
  <text x="506" y="281" text-anchor="middle" font-size="11" font-family="Arial, sans-serif" fill="white" font-weight="bold">4</text>
  <path d="M 730 330 L 778 330 L 778 362 L 730 362" fill="none" stroke="#37474f" stroke-width="1.5" marker-end="url(#arr)" />
  <text x="786" y="346" text-anchor="start" font-size="12" font-family="Arial, sans-serif" fill="#1a1a2e">Phát hiện vùng đơn thuốc (YOLO)</text>
  <circle cx="710" cy="338" r="12" fill="#1a3a6e" />
  <text x="710" y="339" text-anchor="middle" font-size="11" font-family="Arial, sans-serif" fill="white" font-weight="bold">5</text>
  <path d="M 730 388 L 778 388 L 778 420 L 730 420" fill="none" stroke="#37474f" stroke-width="1.5" marker-end="url(#arr)" />
  <text x="786" y="404" text-anchor="start" font-size="12" font-family="Arial, sans-serif" fill="#1a1a2e">Tiền xử lý ảnh (deskew, căn hướng)</text>
  <circle cx="710" cy="396" r="12" fill="#1a3a6e" />
  <text x="710" y="397" text-anchor="middle" font-size="11" font-family="Arial, sans-serif" fill="white" font-weight="bold">6</text>
  <path d="M 730 446 L 778 446 L 778 478 L 730 478" fill="none" stroke="#37474f" stroke-width="1.5" marker-end="url(#arr)" />
  <text x="786" y="462" text-anchor="start" font-size="12" font-family="Arial, sans-serif" fill="#1a1a2e">Nhận dạng ký tự quang học (PaddleOCR + VietOCR)</text>
  <circle cx="710" cy="454" r="12" fill="#1a3a6e" />
  <text x="710" y="455" text-anchor="middle" font-size="11" font-family="Arial, sans-serif" fill="white" font-weight="bold">7</text>
  <path d="M 730 504 L 778 504 L 778 536 L 730 536" fill="none" stroke="#37474f" stroke-width="1.5" marker-end="url(#arr)" />
  <text x="786" y="520" text-anchor="start" font-size="12" font-family="Arial, sans-serif" fill="#1a1a2e">Trích xuất tên thuốc (PhoBERT NER)</text>
  <circle cx="710" cy="512" r="12" fill="#1a3a6e" />
  <text x="710" y="513" text-anchor="middle" font-size="11" font-family="Arial, sans-serif" fill="white" font-weight="bold">8</text>
  <path d="M 730 562 L 778 562 L 778 594 L 730 594" fill="none" stroke="#37474f" stroke-width="1.5" marker-end="url(#arr)" />
  <text x="786" y="578" text-anchor="start" font-size="12" font-family="Arial, sans-serif" fill="#1a1a2e">Tra cứu và chuẩn hóa tên thuốc</text>
  <circle cx="710" cy="570" r="12" fill="#1a3a6e" />
  <text x="710" y="571" text-anchor="middle" font-size="11" font-family="Arial, sans-serif" fill="white" font-weight="bold">9</text>
  <line x1="730" y1="628" x2="490" y2="628" stroke="#37474f" stroke-width="1.5" stroke-dasharray="8,5" marker-end="url(#arr-open)" />
  <text x="610.0" y="619" text-anchor="middle" font-size="13" font-family="Arial, sans-serif" fill="#1a1a2e">Trả về kết quả nhận diện</text>
  <circle cx="714" cy="628" r="12" fill="#1a3a6e" />
  <text x="714" y="629" text-anchor="middle" font-size="11" font-family="Arial, sans-serif" fill="white" font-weight="bold">10</text>
  <rect x="484" y="682" width="12" height="52" fill="#cde5ff" stroke="#3a7ec9" stroke-width="1" />
  <line x1="490" y1="686" x2="1010" y2="686" stroke="#37474f" stroke-width="1.5" stroke-dasharray="none" marker-end="url(#arr)" />
  <text x="750.0" y="677" text-anchor="middle" font-size="13" font-family="Arial, sans-serif" fill="#1a1a2e">Lưu lịch sử quét và kết quả</text>
  <circle cx="506" cy="686" r="12" fill="#1a3a6e" />
  <text x="506" y="687" text-anchor="middle" font-size="11" font-family="Arial, sans-serif" fill="white" font-weight="bold">11</text>
  <line x1="490" y1="744" x2="268" y2="744" stroke="#37474f" stroke-width="1.5" stroke-dasharray="8,5" marker-end="url(#arr-open)" />
  <text x="379.0" y="735" text-anchor="middle" font-size="13" font-family="Arial, sans-serif" fill="#1a1a2e">Trả về danh sách thuốc</text>
  <circle cx="474" cy="744" r="12" fill="#1a3a6e" />
  <text x="474" y="745" text-anchor="middle" font-size="11" font-family="Arial, sans-serif" fill="white" font-weight="bold">12</text>
  <line x1="268" y1="802" x2="70" y2="802" stroke="#37474f" stroke-width="1.5" stroke-dasharray="8,5" marker-end="url(#arr-open)" />
  <text x="169.0" y="793" text-anchor="middle" font-size="13" font-family="Arial, sans-serif" fill="#1a1a2e">Hiển thị để rà soát và lập lịch</text>
  <circle cx="252" cy="802" r="12" fill="#1a3a6e" />
  <text x="252" y="803" text-anchor="middle" font-size="11" font-family="Arial, sans-serif" fill="white" font-weight="bold">13</text>
</svg>