<?xml version='1.0' encoding='utf-8'?>
<svg xmlns="http://www.w3.org/2000/svg" width="1050" height="840" viewBox="0 0 1050 840">
  <defs>
    <marker id="arr" markerWidth="9" markerHeight="7" refX="8" refY="3.5" orient="auto">
      <polygon points="0 0, 9 3.5, 0 7" fill="#37474f" />
    </marker>
    <marker id="arr-open" markerWidth="9" markerHeight="7" refX="8" refY="3.5" orient="auto">
      <path d="M 0 0 L 9 3.5 L 0 7" fill="none" stroke="#37474f" stroke-width="1.5" />
    </marker>
  </defs>
  <style>
  text { font-family: Arial, sans-serif; }
  .seq-num { font-size: 11px; font-weight: bold; fill: white; }
  .msg     { font-size: 12px; fill: #1a1a2e; }
  .self    { font-size: 11px; fill: #1a1a2e; }
</style>
  <rect x="0" y="0" width="1050" height="840" fill="white" />
  <rect x="10" y="20" width="140" height="52" rx="6" fill="#fff7e8" stroke="#b7791f" stroke-width="2" />
  <text x="80" y="46.0" text-anchor="middle" font-size="13" font-family="Arial, sans-serif" fill="#7a4512" font-weight="bold">Người dùng</text>
  <line x1="80" y1="72" x2="80" y2="810" stroke="#aaaaaa" stroke-width="1.2" stroke-dasharray="6,4" />
  <rect x="200" y="20" width="140" height="52" rx="6" fill="#e8f3fd" stroke="#3a7ec9" stroke-width="2" />
  <text x="270" y="37.5" text-anchor="middle" font-size="13" font-family="Arial, sans-serif" fill="#1a4a80" font-weight="bold">Ứng dụng</text>
  <text x="270" y="54.5" text-anchor="middle" font-size="13" font-family="Arial, sans-serif" fill="#1a4a80" font-weight="bold">di động</text>
  <line x1="270" y1="72" x2="270" y2="810" stroke="#aaaaaa" stroke-width="1.2" stroke-dasharray="6,4" />
  <rect x="410" y="20" width="140" height="52" rx="6" fill="#edfaf3" stroke="#2d7a46" stroke-width="2" />
  <text x="480" y="37.5" text-anchor="middle" font-size="13" font-family="Arial, sans-serif" fill="#1a5c32" font-weight="bold">Máy chủ</text>
  <text x="480" y="54.5" text-anchor="middle" font-size="13" font-family="Arial, sans-serif" fill="#1a5c32" font-weight="bold">Node.js</text>
  <line x1="480" y1="72" x2="480" y2="810" stroke="#aaaaaa" stroke-width="1.2" stroke-dasharray="6,4" />
  <rect x="630" y="20" width="140" height="52" rx="6" fill="#fffbec" stroke="#c49a00" stroke-width="2" />
  <text x="700" y="37.5" text-anchor="middle" font-size="13" font-family="Arial, sans-serif" fill="#7a5c00" font-weight="bold">Dịch vụ AI</text>
  <text x="700" y="54.5" text-anchor="middle" font-size="13" font-family="Arial, sans-serif" fill="#7a5c00" font-weight="bold">(FastAPI)</text>
  <line x1="700" y1="72" x2="700" y2="810" stroke="#aaaaaa" stroke-width="1.2" stroke-dasharray="6,4" />
  <rect x="890" y="20" width="140" height="52" rx="6" fill="#eef2ff" stroke="#2457a5" stroke-width="2" />
  <text x="960" y="46.0" text-anchor="middle" font-size="13" font-family="Arial, sans-serif" fill="#1a337a" font-weight="bold">PostgreSQL</text>
  <line x1="960" y1="72" x2="960" y2="810" stroke="#aaaaaa" stroke-width="1.2" stroke-dasharray="6,4" />
  <rect x="475" y="200" width="10" height="476" fill="#cde5ff" stroke="#3a7ec9" stroke-width="1" opacity="0.7" />
  <rect x="695" y="252" width="10" height="320" fill="#cde5ff" stroke="#3a7ec9" stroke-width="1" opacity="0.7" />
  <rect x="75" y="96" width="10" height="48" fill="#cde5ff" stroke="#3a7ec9" stroke-width="1" />
  <line x1="80" y1="100" x2="270" y2="100" stroke="#37474f" stroke-width="1.5" stroke-dasharray="none" marker-end="url(#arr)" />
  <text x="175.0" y="92" text-anchor="middle" font-size="12" font-family="Arial, sans-serif" fill="#1a1a2e">Chụp hoặc chọn ảnh đơn thuốc</text>
  <circle cx="94" cy="100" r="11" fill="#1a3a6e" />
  <text x="94" y="100" text-anchor="middle" font-size="10" font-family="Arial, sans-serif" fill="white" font-weight="bold">1</text>
  <path d="M 270 146 L 314 146 L 314 174 L 270 174" fill="none" stroke="#37474f" stroke-width="1.4" marker-end="url(#arr)" />
  <text x="320" y="160" text-anchor="start" font-size="11" font-family="Arial, sans-serif" fill="#1a1a2e">Kiểm tra chất lượng ảnh cục bộ</text>
  <circle cx="252" cy="154" r="11" fill="#1a3a6e" />
  <text x="252" y="154" text-anchor="middle" font-size="10" font-family="Arial, sans-serif" fill="white" font-weight="bold">2</text>
  <rect x="265" y="200" width="10" height="48" fill="#cde5ff" stroke="#3a7ec9" stroke-width="1" />
  <line x1="270" y1="204" x2="480" y2="204" stroke="#37474f" stroke-width="1.5" stroke-dasharray="none" marker-end="url(#arr)" />
  <text x="375.0" y="196" text-anchor="middle" font-size="12" font-family="Arial, sans-serif" fill="#1a1a2e">Gửi ảnh lên API quét đơn</text>
  <circle cx="284" cy="204" r="11" fill="#1a3a6e" />
  <text x="284" y="204" text-anchor="middle" font-size="10" font-family="Arial, sans-serif" fill="white" font-weight="bold">3</text>
  <rect x="475" y="252" width="10" height="48" fill="#cde5ff" stroke="#3a7ec9" stroke-width="1" />
  <line x1="480" y1="256" x2="700" y2="256" stroke="#37474f" stroke-width="1.5" stroke-dasharray="none" marker-end="url(#arr)" />
  <text x="590.0" y="248" text-anchor="middle" font-size="12" font-family="Arial, sans-serif" fill="#1a1a2e">Chuyển tiếp ảnh đến dịch vụ AI</text>
  <circle cx="494" cy="256" r="11" fill="#1a3a6e" />
  <text x="494" y="256" text-anchor="middle" font-size="10" font-family="Arial, sans-serif" fill="white" font-weight="bold">4</text>
  <path d="M 700 302 L 744 302 L 744 330 L 700 330" fill="none" stroke="#37474f" stroke-width="1.4" marker-end="url(#arr)" />
  <text x="750" y="316" text-anchor="start" font-size="11" font-family="Arial, sans-serif" fill="#1a1a2e">Phát hiện vùng đơn thuốc (YOLO)</text>
  <circle cx="682" cy="310" r="11" fill="#1a3a6e" />
  <text x="682" y="310" text-anchor="middle" font-size="10" font-family="Arial, sans-serif" fill="white" font-weight="bold">5</text>
  <path d="M 700 354 L 744 354 L 744 382 L 700 382" fill="none" stroke="#37474f" stroke-width="1.4" marker-end="url(#arr)" />
  <text x="750" y="368" text-anchor="start" font-size="11" font-family="Arial, sans-serif" fill="#1a1a2e">Tiền xử lý ảnh (deskew, căn hướng)</text>
  <circle cx="682" cy="362" r="11" fill="#1a3a6e" />
  <text x="682" y="362" text-anchor="middle" font-size="10" font-family="Arial, sans-serif" fill="white" font-weight="bold">6</text>
  <path d="M 700 406 L 744 406 L 744 434 L 700 434" fill="none" stroke="#37474f" stroke-width="1.4" marker-end="url(#arr)" />
  <text x="750" y="420" text-anchor="start" font-size="11" font-family="Arial, sans-serif" fill="#1a1a2e">Nhận dạng ký tự quang học (PaddleOCR + VietOCR)</text>
  <circle cx="682" cy="414" r="11" fill="#1a3a6e" />
  <text x="682" y="414" text-anchor="middle" font-size="10" font-family="Arial, sans-serif" fill="white" font-weight="bold">7</text>
  <path d="M 700 458 L 744 458 L 744 486 L 700 486" fill="none" stroke="#37474f" stroke-width="1.4" marker-end="url(#arr)" />
  <text x="750" y="472" text-anchor="start" font-size="11" font-family="Arial, sans-serif" fill="#1a1a2e">Trích xuất tên thuốc (PhoBERT NER)</text>
  <circle cx="682" cy="466" r="11" fill="#1a3a6e" />
  <text x="682" y="466" text-anchor="middle" font-size="10" font-family="Arial, sans-serif" fill="white" font-weight="bold">8</text>
  <path d="M 700 510 L 744 510 L 744 538 L 700 538" fill="none" stroke="#37474f" stroke-width="1.4" marker-end="url(#arr)" />
  <text x="750" y="524" text-anchor="start" font-size="11" font-family="Arial, sans-serif" fill="#1a1a2e">Tra cứu và chuẩn hóa tên thuốc</text>
  <circle cx="682" cy="518" r="11" fill="#1a3a6e" />
  <text x="682" y="518" text-anchor="middle" font-size="10" font-family="Arial, sans-serif" fill="white" font-weight="bold">9</text>
  <line x1="700" y1="568" x2="480" y2="568" stroke="#37474f" stroke-width="1.5" stroke-dasharray="8,5" marker-end="url(#arr-open)" />
  <text x="590.0" y="560" text-anchor="middle" font-size="12" font-family="Arial, sans-serif" fill="#1a1a2e">Trả về kết quả nhận diện</text>
  <circle cx="686" cy="568" r="11" fill="#1a3a6e" />
  <text x="686" y="568" text-anchor="middle" font-size="10" font-family="Arial, sans-serif" fill="white" font-weight="bold">10</text>
  <rect x="475" y="616" width="10" height="48" fill="#cde5ff" stroke="#3a7ec9" stroke-width="1" />
  <line x1="480" y1="620" x2="960" y2="620" stroke="#37474f" stroke-width="1.5" stroke-dasharray="none" marker-end="url(#arr)" />
  <text x="720.0" y="612" text-anchor="middle" font-size="12" font-family="Arial, sans-serif" fill="#1a1a2e">Lưu lịch sử quét và kết quả</text>
  <circle cx="494" cy="620" r="11" fill="#1a3a6e" />
  <text x="494" y="620" text-anchor="middle" font-size="10" font-family="Arial, sans-serif" fill="white" font-weight="bold">11</text>
  <line x1="480" y1="672" x2="270" y2="672" stroke="#37474f" stroke-width="1.5" stroke-dasharray="8,5" marker-end="url(#arr-open)" />
  <text x="375.0" y="664" text-anchor="middle" font-size="12" font-family="Arial, sans-serif" fill="#1a1a2e">Trả về danh sách thuốc</text>
  <circle cx="466" cy="672" r="11" fill="#1a3a6e" />
  <text x="466" y="672" text-anchor="middle" font-size="10" font-family="Arial, sans-serif" fill="white" font-weight="bold">12</text>
  <line x1="270" y1="724" x2="80" y2="724" stroke="#37474f" stroke-width="1.5" stroke-dasharray="8,5" marker-end="url(#arr-open)" />
  <text x="175.0" y="716" text-anchor="middle" font-size="12" font-family="Arial, sans-serif" fill="#1a1a2e">Hiển thị để rà soát và lập lịch</text>
  <circle cx="256" cy="724" r="11" fill="#1a3a6e" />
  <text x="256" y="724" text-anchor="middle" font-size="10" font-family="Arial, sans-serif" fill="white" font-weight="bold">13</text>
</svg>