<?xml version='1.0' encoding='utf-8'?>
<svg xmlns="http://www.w3.org/2000/svg" width="900" height="620" viewBox="0 0 900 620">
  <defs>
    <marker id="arrowhead" markerWidth="8" markerHeight="6" refX="7" refY="3" orient="auto">
      <polygon points="0 0, 8 3, 0 6" fill="#455a64" />
    </marker>
    <marker id="arrowhead-dash" markerWidth="8" markerHeight="6" refX="7" refY="3" orient="auto">
      <polygon points="0 0, 8 3, 0 6" fill="#455a64" />
    </marker>
  </defs>
  <style>
  text { font-family: Arial, sans-serif; }
  .boundary-label { font-size: 13px; font-weight: bold; fill: #2457a5; }
</style>
  <rect x="0" y="0" width="900" height="620" rx="0" ry="0" fill="white" />
  <rect x="200" y="40" width="640" height="540" rx="8" ry="8" fill="#f9fbfd" stroke="#8aa4c8" stroke-width="1.8" stroke-dasharray="none" />
  <text x="214" y="62" class="boundary-label">Hệ thống MedicineApp</text>
  <ellipse cx="520" cy="130" rx="108" ry="28" fill="#f0f4ff" stroke="#2457a5" stroke-width="1.8" />
  <text x="520" y="130" text-anchor="middle" dominant-baseline="central" font-size="13" font-family="Arial, sans-serif" fill="#111">
    <tspan x="520" dy="0">Đăng nhập / Đăng ký</tspan>
  </text>
  <ellipse cx="480" cy="220" rx="108" ry="28" fill="#f0f4ff" stroke="#2457a5" stroke-width="1.8" />
  <text x="480" y="220" text-anchor="middle" dominant-baseline="central" font-size="13" font-family="Arial, sans-serif" fill="#111">
    <tspan x="480" dy="0">Quét đơn thuốc</tspan>
  </text>
  <ellipse cx="480" cy="310" rx="108" ry="28" fill="#f0f4ff" stroke="#2457a5" stroke-width="1.8" />
  <text x="480" y="310" text-anchor="middle" dominant-baseline="central" font-size="13" font-family="Arial, sans-serif" fill="#111">
    <tspan x="480" dy="0">Rà soát danh sách thuốc</tspan>
  </text>
  <ellipse cx="480" cy="400" rx="108" ry="28" fill="#f0f4ff" stroke="#2457a5" stroke-width="1.8" />
  <text x="480" y="400" text-anchor="middle" dominant-baseline="central" font-size="13" font-family="Arial, sans-serif" fill="#111">
    <tspan x="480" dy="0">Lập lịch dùng thuốc</tspan>
  </text>
  <ellipse cx="480" cy="490" rx="108" ry="28" fill="#f0f4ff" stroke="#2457a5" stroke-width="1.8" />
  <text x="480" y="490" text-anchor="middle" dominant-baseline="central" font-size="13" font-family="Arial, sans-serif" fill="#111">
    <tspan x="480" dy="0">Xem lịch hôm nay</tspan>
  </text>
  <ellipse cx="700" cy="400" rx="108" ry="28" fill="#f0f4ff" stroke="#2457a5" stroke-width="1.8" />
  <text x="700" y="400" text-anchor="middle" dominant-baseline="central" font-size="13" font-family="Arial, sans-serif" fill="#111">
    <tspan x="700" dy="0">Ghi nhận đã uống / bỏ qua</tspan>
  </text>
  <ellipse cx="700" cy="490" rx="108" ry="28" fill="#f0f4ff" stroke="#2457a5" stroke-width="1.8" />
  <text x="700" y="490" text-anchor="middle" dominant-baseline="central" font-size="13" font-family="Arial, sans-serif" fill="#111">
    <tspan x="700" dy="0">Xem lịch sử quét</tspan>
  </text>
  <ellipse cx="90" cy="216" rx="16" ry="16" fill="white" stroke="#333" stroke-width="1.5" />
  <line x1="90" y1="232" x2="90" y2="270" stroke="#333" stroke-width="1.5" />
  <line x1="66" y1="244" x2="114" y2="244" stroke="#333" stroke-width="1.5" />
  <line x1="90" y1="270" x2="70" y2="298" stroke="#333" stroke-width="1.5" />
  <line x1="90" y1="270" x2="110" y2="298" stroke="#333" stroke-width="1.5" />
  <text x="90" y="318" text-anchor="middle" font-size="14" font-family="Arial, sans-serif" font-weight="bold" fill="#222">
    <tspan x="90" dy="0">Người dùng</tspan>
  </text>
  <path d="M 114 228 L 412 130" fill="none" stroke="#455a64" stroke-width="1.2" marker-end="url(#arrowhead)" />
  <path d="M 114 228 L 372 220" fill="none" stroke="#455a64" stroke-width="1.2" marker-end="url(#arrowhead)" />
  <path d="M 114 228 L 372 310" fill="none" stroke="#455a64" stroke-width="1.2" marker-end="url(#arrowhead)" />
  <path d="M 114 228 L 372 400" fill="none" stroke="#455a64" stroke-width="1.2" marker-end="url(#arrowhead)" />
  <path d="M 114 228 L 372 490" fill="none" stroke="#455a64" stroke-width="1.2" marker-end="url(#arrowhead)" />
  <path d="M 114 228 L 592 400" fill="none" stroke="#455a64" stroke-width="1.2" marker-end="url(#arrowhead)" />
  <path d="M 114 228 L 592 490" fill="none" stroke="#455a64" stroke-width="1.2" marker-end="url(#arrowhead)" />
  <path d="M 480 248 L 480 282" fill="none" stroke="#455a64" stroke-width="1.2" stroke-dasharray="6,4" marker-end="url(#arrowhead-dash)" />
  <text x="490.0" y="265.0" text-anchor="middle" font-size="10" font-family="Arial, sans-serif" fill="#555" font-style="italic">«include»</text>
  <path d="M 480 338 L 480 372" fill="none" stroke="#455a64" stroke-width="1.2" stroke-dasharray="6,4" marker-end="url(#arrowhead-dash)" />
  <text x="490.0" y="355.0" text-anchor="middle" font-size="10" font-family="Arial, sans-serif" fill="#555" font-style="italic">«include»</text>
  <path d="M 480 428 L 480 462" fill="none" stroke="#455a64" stroke-width="1.2" stroke-dasharray="6,4" marker-end="url(#arrowhead-dash)" />
  <text x="490.0" y="445.0" text-anchor="middle" font-size="10" font-family="Arial, sans-serif" fill="#555" font-style="italic">«include»</text>
  <path d="M 588 490 L 592 400" fill="none" stroke="#455a64" stroke-width="1.2" stroke-dasharray="6,4" marker-end="url(#arrowhead-dash)" />
  <text x="600.0" y="445.0" text-anchor="middle" font-size="10" font-family="Arial, sans-serif" fill="#555" font-style="italic">«extend»</text>
</svg>