<?xml version='1.0' encoding='utf-8'?>
<svg xmlns="http://www.w3.org/2000/svg" width="860" height="580" viewBox="0 0 860 580">
  <defs>
    <marker id="arr" markerWidth="9" markerHeight="7" refX="8" refY="3.5" orient="auto">
      <polygon points="0 0, 9 3.5, 0 7" fill="#37474f" />
    </marker>
    <marker id="arr-dash" markerWidth="9" markerHeight="7" refX="8" refY="3.5" orient="auto">
      <polygon points="0 0, 9 3.5, 0 7" fill="#37474f" />
    </marker>
  </defs>
  <style>
  text { font-family: Arial, sans-serif; }
  .boundary-title { font-size: 13px; font-weight: bold; fill: #1a3a6e; }
</style>
  <rect x="0" y="0" width="860" height="580" fill="white" />
  <rect x="165" y="28" width="670" height="522" rx="6" ry="6" fill="#f8fafd" stroke="#7a9abf" stroke-width="1.8" />
  <text x="500.0" y="48" class="boundary-title" text-anchor="middle">Hệ thống Hỗ trợ Quản lý Thuốc</text>
  <ellipse cx="390" cy="100" rx="108" ry="30" fill="#eef3fb" stroke="#2457a5" stroke-width="2.0" />
  <text x="390" y="100" text-anchor="middle" dominant-baseline="central" font-size="13" font-family="Arial, sans-serif" fill="#0d1f40">
    <tspan x="390" dy="0">Đăng nhập / Đăng ký</tspan>
  </text>
  <ellipse cx="390" cy="192" rx="108" ry="30" fill="#eef3fb" stroke="#2457a5" stroke-width="2.0" />
  <text x="390" y="192" text-anchor="middle" dominant-baseline="central" font-size="13" font-family="Arial, sans-serif" fill="#0d1f40">
    <tspan x="390" dy="0">Quét đơn thuốc</tspan>
  </text>
  <ellipse cx="390" cy="290" rx="108" ry="30" fill="#eef3fb" stroke="#2457a5" stroke-width="2.0" />
  <text x="390" y="290" text-anchor="middle" dominant-baseline="central" font-size="13" font-family="Arial, sans-serif" fill="#0d1f40">
    <tspan x="390" dy="0">Rà soát danh sách thuốc</tspan>
  </text>
  <ellipse cx="390" cy="388" rx="108" ry="30" fill="#eef3fb" stroke="#2457a5" stroke-width="2.0" />
  <text x="390" y="388" text-anchor="middle" dominant-baseline="central" font-size="13" font-family="Arial, sans-serif" fill="#0d1f40">
    <tspan x="390" dy="0">Lập lịch dùng thuốc</tspan>
  </text>
  <ellipse cx="390" cy="486" rx="108" ry="30" fill="#eef3fb" stroke="#2457a5" stroke-width="2.0" />
  <text x="390" y="486" text-anchor="middle" dominant-baseline="central" font-size="13" font-family="Arial, sans-serif" fill="#0d1f40">
    <tspan x="390" dy="0">Xem lịch hôm nay</tspan>
  </text>
  <ellipse cx="660" cy="388" rx="108" ry="30" fill="#eef3fb" stroke="#2457a5" stroke-width="2.0" />
  <text x="660" y="388" text-anchor="middle" dominant-baseline="central" font-size="13" font-family="Arial, sans-serif" fill="#0d1f40">
    <tspan x="660" dy="-8">Ghi nhận đã uống</tspan>
    <tspan x="660" dy="16">/ bỏ qua</tspan>
  </text>
  <ellipse cx="660" cy="486" rx="108" ry="30" fill="#eef3fb" stroke="#2457a5" stroke-width="2.0" />
  <text x="660" y="486" text-anchor="middle" dominant-baseline="central" font-size="13" font-family="Arial, sans-serif" fill="#0d1f40">
    <tspan x="660" dy="0">Xem lịch sử quét</tspan>
  </text>
  <circle cx="80" cy="173" r="18" fill="white" stroke="#333333" stroke-width="1.8" />
  <line x1="80" y1="191" x2="80" y2="235" stroke="#333333" stroke-width="1.8" />
  <line x1="52" y1="205" x2="108" y2="205" stroke="#333333" stroke-width="1.8" />
  <line x1="80" y1="235" x2="58" y2="265" stroke="#333333" stroke-width="1.8" />
  <line x1="80" y1="235" x2="102" y2="265" stroke="#333333" stroke-width="1.8" />
  <text x="80" y="283" text-anchor="middle" font-size="14" font-family="Arial, sans-serif" font-weight="bold" fill="#222222">
    <tspan x="80" dy="0">Người dùng</tspan>
  </text>
  <path d="M 108 205 L 325.42005639349907 124.04572368327162" fill="none" stroke="#37474f" stroke-width="1.4" marker-end="url(#arr)" />
  <path d="M 108 205 L 283.457228257604 196.911546215075" fill="none" stroke="#37474f" stroke-width="1.4" marker-end="url(#arr)" />
  <path d="M 108 205 L 316.8104502875568 267.93932012213594" fill="none" stroke="#37474f" stroke-width="1.4" marker-end="url(#arr)" />
  <path d="M 108 205 L 347.5003731887737 360.42045494165103" fill="none" stroke="#37474f" stroke-width="1.4" marker-end="url(#arr)" />
  <path d="M 108 205 L 360.99900124842634 457.1018416695312" fill="none" stroke="#37474f" stroke-width="1.4" marker-end="url(#arr)" />
  <path d="M 108 205 L 590.6378603912868 365.0049428471114" fill="none" stroke="#37474f" stroke-width="1.4" marker-end="url(#arr)" />
  <path d="M 108 205 L 608.2682118174023 459.66552087081527" fill="none" stroke="#37474f" stroke-width="1.4" marker-end="url(#arr)" />
  <path d="M 412.0 222.0 L 412.0 260.0" fill="none" stroke="#37474f" stroke-width="1.3" stroke-dasharray="7,4" marker-end="url(#arr-dash)" />
  <text x="442.0" y="241.0" text-anchor="middle" font-size="11" font-family="Arial, sans-serif" fill="#555555" font-style="italic">«include»</text>
  <path d="M 412.0 320.0 L 412.0 358.0" fill="none" stroke="#37474f" stroke-width="1.3" stroke-dasharray="7,4" marker-end="url(#arr-dash)" />
  <text x="442.0" y="339.0" text-anchor="middle" font-size="11" font-family="Arial, sans-serif" fill="#555555" font-style="italic">«include»</text>
  <path d="M 412.0 418.0 L 412.0 456.0" fill="none" stroke="#37474f" stroke-width="1.3" stroke-dasharray="7,4" marker-end="url(#arr-dash)" />
  <text x="442.0" y="437.0" text-anchor="middle" font-size="11" font-family="Arial, sans-serif" fill="#555555" font-style="italic">«include»</text>
  <path d="M 455.6370910645987 462.17616694692344 L 594.3629089354014 411.82383305307656" fill="none" stroke="#37474f" stroke-width="1.3" stroke-dasharray="7,4" marker-end="url(#arr-dash)" />
  <text x="525.0" y="427.0" text-anchor="middle" font-size="11" font-family="Arial, sans-serif" fill="#555555" font-style="italic">«extend»</text>
</svg>