<?xml version='1.0' encoding='utf-8'?>
<svg xmlns="http://www.w3.org/2000/svg" width="960" height="450" viewBox="0 0 960 450">
  <defs>
    <marker id="arr" markerWidth="9" markerHeight="7" refX="8" refY="3.5" orient="auto">
      <polygon points="0 0, 9 3.5, 0 7" fill="#37474f" />
    </marker>
  </defs>
  <style>text { font-family: Arial, sans-serif; }</style>
  <rect x="0" y="0" width="960" height="450" fill="white" />
  <rect x="6.0" y="100.0" width="92" height="40" rx="20.0" fill="#1a3a6e" stroke="#1a3a6e" stroke-width="1.5" />
  <text x="52" y="121" text-anchor="middle" font-size="14" font-family="Arial, sans-serif" fill="white" font-weight="bold">Bắt đầu</text>
  <rect x="129.0" y="86.0" width="134" height="68" rx="7" fill="#edf7f0" stroke="#2d7a46" stroke-width="1.6" />
  <text x="196" y="111.5" text-anchor="middle" font-size="13" font-family="Arial, sans-serif" fill="#111">Quét đơn thuốc</text>
  <text x="196" y="128.5" text-anchor="middle" font-size="13" font-family="Arial, sans-serif" fill="#111">và nhận kết quả</text>
  <polygon points="334,82.0 393.0,120 334,158.0 275.0,120" fill="#fff8e1" stroke="#b7791f" stroke-width="1.6" />
  <text x="334" y="112.5" text-anchor="middle" font-size="13" font-family="Arial, sans-serif" fill="#111">Cần</text>
  <text x="334" y="127.5" text-anchor="middle" font-size="13" font-family="Arial, sans-serif" fill="#111">chỉnh sửa?</text>
  <rect x="423.0" y="86.0" width="134" height="68" rx="7" fill="#edf7f0" stroke="#2d7a46" stroke-width="1.6" />
  <text x="490" y="111.5" text-anchor="middle" font-size="13" font-family="Arial, sans-serif" fill="#111">Chọn ngày bắt đầu</text>
  <text x="490" y="128.5" text-anchor="middle" font-size="13" font-family="Arial, sans-serif" fill="#111">&amp; số ngày dùng</text>
  <rect x="571.0" y="86.0" width="134" height="68" rx="7" fill="#edf7f0" stroke="#2d7a46" stroke-width="1.6" />
  <text x="638" y="111.5" text-anchor="middle" font-size="13" font-family="Arial, sans-serif" fill="#111">Chọn khung giờ</text>
  <text x="638" y="128.5" text-anchor="middle" font-size="13" font-family="Arial, sans-serif" fill="#111">uống thuốc</text>
  <rect x="733.0" y="86.0" width="134" height="68" rx="7" fill="#edf7f0" stroke="#2d7a46" stroke-width="1.6" />
  <text x="800" y="111.5" text-anchor="middle" font-size="13" font-family="Arial, sans-serif" fill="#111">Nhập số viên</text>
  <text x="800" y="128.5" text-anchor="middle" font-size="13" font-family="Arial, sans-serif" fill="#111">mỗi khung giờ</text>
  <rect x="267.0" y="286.0" width="134" height="68" rx="7" fill="#edf7f0" stroke="#2d7a46" stroke-width="1.6" />
  <text x="334" y="311.5" text-anchor="middle" font-size="13" font-family="Arial, sans-serif" fill="#111">Chỉnh sửa</text>
  <text x="334" y="328.5" text-anchor="middle" font-size="13" font-family="Arial, sans-serif" fill="#111">danh sách thuốc</text>
  <rect x="423.0" y="286.0" width="134" height="68" rx="7" fill="#edf7f0" stroke="#2d7a46" stroke-width="1.6" />
  <text x="490" y="311.5" text-anchor="middle" font-size="13" font-family="Arial, sans-serif" fill="#111">Lưu kế hoạch</text>
  <text x="490" y="328.5" text-anchor="middle" font-size="13" font-family="Arial, sans-serif" fill="#111">lên máy chủ</text>
  <rect x="571.0" y="286.0" width="134" height="68" rx="7" fill="#edf7f0" stroke="#2d7a46" stroke-width="1.6" />
  <text x="638" y="311.5" text-anchor="middle" font-size="13" font-family="Arial, sans-serif" fill="#111">Thiết lập thông báo</text>
  <text x="638" y="328.5" text-anchor="middle" font-size="13" font-family="Arial, sans-serif" fill="#111">nhắc uống thuốc</text>
  <rect x="754.0" y="300.0" width="92" height="40" rx="20.0" fill="#1a3a6e" stroke="#1a3a6e" stroke-width="1.5" />
  <text x="800" y="321" text-anchor="middle" font-size="14" font-family="Arial, sans-serif" fill="white" font-weight="bold">Kết thúc</text>
  <path d="M 98 120 L 129 120" fill="none" stroke="#37474f" stroke-width="1.6" marker-end="url(#arr)" />
  <path d="M 263 120 L 275 120" fill="none" stroke="#37474f" stroke-width="1.6" marker-end="url(#arr)" />
  <path d="M 393 120 L 423 120" fill="none" stroke="#37474f" stroke-width="1.6" marker-end="url(#arr)" />
  <text x="408.0" y="108" text-anchor="middle" font-size="12" font-family="Arial, sans-serif" fill="#555" font-style="italic">Không</text>
  <path d="M 557 120 L 571 120" fill="none" stroke="#37474f" stroke-width="1.6" marker-end="url(#arr)" />
  <path d="M 705 120 L 733 120" fill="none" stroke="#37474f" stroke-width="1.6" marker-end="url(#arr)" />
  <path d="M 800 154 L 800 220 L 490 220 L 490 286" fill="none" stroke="#37474f" stroke-width="1.6" marker-end="url(#arr)" />
  <path d="M 557 320 L 571 320" fill="none" stroke="#37474f" stroke-width="1.6" marker-end="url(#arr)" />
  <path d="M 705 320 L 754 320" fill="none" stroke="#37474f" stroke-width="1.6" marker-end="url(#arr)" />
  <path d="M 334 158 L 334 286" fill="none" stroke="#37474f" stroke-width="1.6" marker-end="url(#arr)" />
  <text x="364" y="222" text-anchor="middle" font-size="12" font-family="Arial, sans-serif" fill="#555" font-style="italic">Có</text>
  <path d="M 401 320 L 423 320" fill="none" stroke="#37474f" stroke-width="1.6" marker-end="url(#arr)" />
</svg>