<?xml version='1.0' encoding='utf-8'?>
<svg xmlns="http://www.w3.org/2000/svg" width="820" height="760" viewBox="0 0 820 760">
  <defs>
    <marker id="arr" markerWidth="9" markerHeight="7" refX="8" refY="3.5" orient="auto">
      <polygon points="0 0, 9 3.5, 0 7" fill="#37474f" />
    </marker>
    <marker id="arr-b" markerWidth="9" markerHeight="7" refX="8" refY="3.5" orient="auto">
      <polygon points="0 0, 9 3.5, 0 7" fill="#37474f" />
    </marker>
    <marker id="arr-start" markerWidth="9" markerHeight="7" refX="1" refY="3.5" orient="auto-start-reverse">
      <polygon points="0 0, 9 3.5, 0 7" fill="#37474f" />
    </marker>
  </defs>
  <style>text { font-family: Arial, sans-serif; }</style>
  <rect x="0" y="0" width="820" height="760" fill="white" />
  <rect x="330" y="20" width="160" height="40" rx="20" fill="#fff7e8" stroke="#b7791f" stroke-width="2" />
  <text x="410" y="46" text-anchor="middle" font-size="14" font-family="Arial, sans-serif" fill="#7a4512" font-weight="bold">Người dùng</text>
  <rect x="30" y="94" width="760" height="136" rx="8" fill="#e8f3fd" stroke="#3a7ec9" stroke-width="1.8" />
  <text x="44" y="115" text-anchor="start" font-size="12" font-family="Arial, sans-serif" fill="#1a4a80" font-weight="bold">Tầng 1 — Ứng dụng di động (Flutter)</text>
  <rect x="53.5" y="132.0" width="175" height="72" rx="5" fill="#c8e4fa" stroke="#3a7ec9" stroke-width="1.3" />
  <text x="141" y="168.0" text-anchor="middle" font-size="11" font-family="Arial, sans-serif" fill="#111111">Quét đơn thuốc</text>
  <rect x="228.5" y="132.0" width="175" height="72" rx="5" fill="#c8e4fa" stroke="#3a7ec9" stroke-width="1.3" />
  <text x="316" y="168.0" text-anchor="middle" font-size="11" font-family="Arial, sans-serif" fill="#111111">Rà soát danh sách</text>
  <rect x="403.5" y="132.0" width="175" height="72" rx="5" fill="#c8e4fa" stroke="#3a7ec9" stroke-width="1.3" />
  <text x="491" y="168.0" text-anchor="middle" font-size="11" font-family="Arial, sans-serif" fill="#111111">Lập lịch dùng thuốc</text>
  <rect x="578.5" y="132.0" width="175" height="72" rx="5" fill="#c8e4fa" stroke="#3a7ec9" stroke-width="1.3" />
  <text x="666" y="168.0" text-anchor="middle" font-size="11" font-family="Arial, sans-serif" fill="#111111">Xem lịch hôm nay</text>
  <rect x="30" y="272" width="760" height="136" rx="8" fill="#edfaf3" stroke="#2d7a46" stroke-width="1.8" />
  <text x="44" y="293" text-anchor="start" font-size="12" font-family="Arial, sans-serif" fill="#1a5c32" font-weight="bold">Tầng 2 — Máy chủ chính (Node.js / Express)</text>
  <rect x="53.5" y="310.0" width="175" height="72" rx="5" fill="#bef0d0" stroke="#2d7a46" stroke-width="1.3" />
  <text x="141" y="338.5" text-anchor="middle" font-size="11" font-family="Arial, sans-serif" fill="#111111">Xác thực</text>
  <text x="141" y="353.5" text-anchor="middle" font-size="11" font-family="Arial, sans-serif" fill="#111111">người dùng</text>
  <rect x="228.5" y="310.0" width="175" height="72" rx="5" fill="#bef0d0" stroke="#2d7a46" stroke-width="1.3" />
  <text x="316" y="338.5" text-anchor="middle" font-size="11" font-family="Arial, sans-serif" fill="#111111">Lịch sử</text>
  <text x="316" y="353.5" text-anchor="middle" font-size="11" font-family="Arial, sans-serif" fill="#111111">quét</text>
  <rect x="403.5" y="310.0" width="175" height="72" rx="5" fill="#bef0d0" stroke="#2d7a46" stroke-width="1.3" />
  <text x="491" y="338.5" text-anchor="middle" font-size="11" font-family="Arial, sans-serif" fill="#111111">Quản lý</text>
  <text x="491" y="353.5" text-anchor="middle" font-size="11" font-family="Arial, sans-serif" fill="#111111">kế hoạch</text>
  <rect x="578.5" y="310.0" width="175" height="72" rx="5" fill="#bef0d0" stroke="#2d7a46" stroke-width="1.3" />
  <text x="666" y="338.5" text-anchor="middle" font-size="11" font-family="Arial, sans-serif" fill="#111111">Nhật ký</text>
  <text x="666" y="353.5" text-anchor="middle" font-size="11" font-family="Arial, sans-serif" fill="#111111">uống thuốc</text>
  <rect x="30" y="450" width="760" height="140" rx="8" fill="#fffbec" stroke="#c49a00" stroke-width="1.8" />
  <text x="44" y="471" text-anchor="start" font-size="12" font-family="Arial, sans-serif" fill="#7a5c00" font-weight="bold">Tầng 3 — Dịch vụ AI (FastAPI / GPU RTX 3050)</text>
  <rect x="53.5" y="485.0" width="175" height="82" rx="5" fill="#fff0b0" stroke="#c49a00" stroke-width="1.3" />
  <text x="141" y="518.5" text-anchor="middle" font-size="10" font-family="Arial, sans-serif" fill="#111111">YOLO</text>
  <text x="141" y="533.5" text-anchor="middle" font-size="10" font-family="Arial, sans-serif" fill="#111111">Detect</text>
  <rect x="228.5" y="485.0" width="175" height="82" rx="5" fill="#fff0b0" stroke="#c49a00" stroke-width="1.3" />
  <text x="316" y="511.0" text-anchor="middle" font-size="10" font-family="Arial, sans-serif" fill="#111111">OCR</text>
  <text x="316" y="526.0" text-anchor="middle" font-size="10" font-family="Arial, sans-serif" fill="#111111">(PaddleOCR</text>
  <text x="316" y="541.0" text-anchor="middle" font-size="10" font-family="Arial, sans-serif" fill="#111111">+ VietOCR)</text>
  <rect x="403.5" y="485.0" width="175" height="82" rx="5" fill="#fff0b0" stroke="#c49a00" stroke-width="1.3" />
  <text x="491" y="518.5" text-anchor="middle" font-size="10" font-family="Arial, sans-serif" fill="#111111">NER</text>
  <text x="491" y="533.5" text-anchor="middle" font-size="10" font-family="Arial, sans-serif" fill="#111111">(PhoBERT)</text>
  <rect x="578.5" y="485.0" width="175" height="82" rx="5" fill="#fff0b0" stroke="#c49a00" stroke-width="1.3" />
  <text x="666" y="518.5" text-anchor="middle" font-size="10" font-family="Arial, sans-serif" fill="#111111">Tra cứu</text>
  <text x="666" y="533.5" text-anchor="middle" font-size="10" font-family="Arial, sans-serif" fill="#111111">thuốc</text>
  <rect x="-8" y="646.0" width="116" height="48" fill="#eef2ff" stroke="none" />
  <line x1="-8" y1="646.0" x2="-8" y2="694.0" stroke="#2457a5" stroke-width="1.5" />
  <line x1="108" y1="646.0" x2="108" y2="694.0" stroke="#2457a5" stroke-width="1.5" />
  <ellipse cx="50" cy="694.0" rx="58" ry="14" fill="#eef2ff" stroke="#2457a5" stroke-width="1.5" />
  <ellipse cx="50" cy="646.0" rx="58" ry="14" fill="#eef2ff" stroke="#2457a5" stroke-width="1.5" />
  <text x="50" y="662.0" text-anchor="middle" font-size="10" font-family="Arial, sans-serif" fill="#111111" font-weight="bold">PostgreSQL</text>
  <text x="50" y="678.0" text-anchor="middle" font-size="10" font-family="Arial, sans-serif" fill="#111111">(Dữ liệu hệ thống)</text>
  <rect x="580" y="646.0" width="200" height="48" fill="#eef2ff" stroke="none" />
  <line x1="580" y1="646.0" x2="580" y2="694.0" stroke="#2457a5" stroke-width="1.5" />
  <line x1="780" y1="646.0" x2="780" y2="694.0" stroke="#2457a5" stroke-width="1.5" />
  <ellipse cx="680" cy="694.0" rx="100" ry="14" fill="#eef2ff" stroke="#2457a5" stroke-width="1.5" />
  <ellipse cx="680" cy="646.0" rx="100" ry="14" fill="#eef2ff" stroke="#2457a5" stroke-width="1.5" />
  <text x="680" y="662.0" text-anchor="middle" font-size="11" font-family="Arial, sans-serif" fill="#111111" font-weight="bold">CSDL thuốc &amp;</text>
  <text x="680" y="678.0" text-anchor="middle" font-size="11" font-family="Arial, sans-serif" fill="#111111">Mô hình AI</text>
  <path d="M 410 60 L 410 94" fill="none" stroke="#37474f" stroke-width="1.5" marker-end="url(#arr)" />
  <path d="M 396 230 L 396 272" fill="none" stroke="#37474f" stroke-width="1.5" marker-end="url(#arr)" />
  <path d="M 424 272 L 424 230" fill="none" stroke="#37474f" stroke-width="1.5" marker-end="url(#arr)" />
  <path d="M 396 408 L 396 450" fill="none" stroke="#37474f" stroke-width="1.5" marker-end="url(#arr)" />
  <path d="M 424 450 L 424 408" fill="none" stroke="#37474f" stroke-width="1.5" marker-end="url(#arr)" />
  <path d="M 40 408 L 40 611 L 60 611 L 60 632" fill="none" stroke="#37474f" stroke-width="1.5" marker-end="url(#arr)" />
  <path d="M 40 632 L 40 596 L 30 596 L 30 408" fill="none" stroke="#37474f" stroke-width="1.5" marker-end="url(#arr)" />
  <text x="95" y="586" text-anchor="middle" font-size="10" font-family="Arial, sans-serif" fill="#444444" font-style="italic">Đọc / Ghi</text>
  <path d="M 680 590 L 680 632" fill="none" stroke="#37474f" stroke-width="1.5" marker-end="url(#arr)" />
  <text x="732" y="611" text-anchor="middle" font-size="10" font-family="Arial, sans-serif" fill="#444444" font-style="italic">Tra cứu</text>
</svg>