<?xml version='1.0' encoding='utf-8'?>
<svg xmlns="http://www.w3.org/2000/svg" width="900" height="620" viewBox="0 0 900 620">
  <defs>
    <marker id="arr" markerWidth="8" markerHeight="7" refX="7" refY="3.5" orient="auto">
      <polygon points="0 0, 8 3.5, 0 7" fill="#37474f" />
    </marker>
    <marker id="arr-dash" markerWidth="8" markerHeight="7" refX="7" refY="3.5" orient="auto">
      <polygon points="0 0, 8 3.5, 0 7" fill="#37474f" />
    </marker>
  </defs>
  <style>
  text { font-family: Arial, sans-serif; }
  .bnd-title { font-size: 14px; font-weight: bold; fill: #1a3a6e; }
</style>
  <rect x="0" y="0" width="900" height="620" fill="white" />
  <rect x="170" y="24" width="710" height="574" rx="6" ry="6" fill="#f8fafd" stroke="#7a9abf" stroke-width="1.8" />
  <text x="525.0" y="46" class="bnd-title" text-anchor="middle">Hệ thống Hỗ trợ Quản lý Đơn Thuốc</text>
  <ellipse cx="420" cy="100" rx="112" ry="30" fill="#eef3fb" stroke="#2457a5" stroke-width="2.0" />
  <text x="420" y="100" text-anchor="middle" dominant-baseline="central" font-size="13" font-family="Arial, sans-serif" fill="#0d1f40">
    <tspan x="420" dy="0">Đăng nhập / Đăng ký</tspan>
  </text>
  <ellipse cx="420" cy="200" rx="112" ry="30" fill="#eef3fb" stroke="#2457a5" stroke-width="2.0" />
  <text x="420" y="200" text-anchor="middle" dominant-baseline="central" font-size="13" font-family="Arial, sans-serif" fill="#0d1f40">
    <tspan x="420" dy="0">Quét đơn thuốc</tspan>
  </text>
  <ellipse cx="420" cy="300" rx="112" ry="30" fill="#eef3fb" stroke="#2457a5" stroke-width="2.0" />
  <text x="420" y="300" text-anchor="middle" dominant-baseline="central" font-size="13" font-family="Arial, sans-serif" fill="#0d1f40">
    <tspan x="420" dy="0">Rà soát danh sách thuốc</tspan>
  </text>
  <ellipse cx="420" cy="400" rx="112" ry="30" fill="#eef3fb" stroke="#2457a5" stroke-width="2.0" />
  <text x="420" y="400" text-anchor="middle" dominant-baseline="central" font-size="13" font-family="Arial, sans-serif" fill="#0d1f40">
    <tspan x="420" dy="0">Lập lịch dùng thuốc</tspan>
  </text>
  <ellipse cx="420" cy="500" rx="112" ry="30" fill="#eef3fb" stroke="#2457a5" stroke-width="2.0" />
  <text x="420" y="500" text-anchor="middle" dominant-baseline="central" font-size="13" font-family="Arial, sans-serif" fill="#0d1f40">
    <tspan x="420" dy="0">Xem lịch hôm nay</tspan>
  </text>
  <ellipse cx="710" cy="395" rx="112" ry="30" fill="#eef3fb" stroke="#2457a5" stroke-width="2.0" />
  <text x="710" y="395" text-anchor="middle" dominant-baseline="central" font-size="13" font-family="Arial, sans-serif" fill="#0d1f40">
    <tspan x="710" dy="-9">Ghi nhận trạng thái</tspan>
    <tspan x="710" dy="18">uống thuốc</tspan>
  </text>
  <ellipse cx="710" cy="505" rx="112" ry="30" fill="#eef3fb" stroke="#2457a5" stroke-width="2.0" />
  <text x="710" y="505" text-anchor="middle" dominant-baseline="central" font-size="13" font-family="Arial, sans-serif" fill="#0d1f40">
    <tspan x="710" dy="0">Xem lịch sử quét</tspan>
  </text>
  <circle cx="82" cy="176" r="16" fill="white" stroke="#222222" stroke-width="1.8" />
  <line x1="82" y1="192" x2="82" y2="234" stroke="#222222" stroke-width="1.8" />
  <line x1="56" y1="206" x2="108" y2="206" stroke="#222222" stroke-width="1.8" />
  <line x1="82" y1="234" x2="62" y2="262" stroke="#222222" stroke-width="1.8" />
  <line x1="82" y1="234" x2="102" y2="262" stroke="#222222" stroke-width="1.8" />
  <text x="82" y="282" text-anchor="middle" font-size="14" font-family="Arial, sans-serif" font-weight="bold" fill="#222222">Người dùng</text>
  <path d="M 108.0 192.0 L 344.7 122.2" fill="none" stroke="#37474f" stroke-width="1.4" marker-end="url(#arr)" />
  <path d="M 108.0 209.8 L 308.8 203.5" fill="none" stroke="#37474f" stroke-width="1.4" marker-end="url(#arr)" />
  <path d="M 108.0 227.6 L 335.4 280.3" fill="none" stroke="#37474f" stroke-width="1.4" marker-end="url(#arr)" />
  <path d="M 108.0 245.3 L 366.8 373.6" fill="none" stroke="#37474f" stroke-width="1.4" marker-end="url(#arr)" />
  <path d="M 108.0 263.1 L 382.7 471.7" fill="none" stroke="#37474f" stroke-width="1.4" marker-end="url(#arr)" />
  <path d="M 108.0 244.4 L 628.1 374.5" fill="none" stroke="#37474f" stroke-width="1.4" marker-end="url(#arr)" />
  <path d="M 108.0 264.0 L 647.7 480.1" fill="none" stroke="#37474f" stroke-width="1.4" marker-end="url(#arr)" />
  <path d="M 456.4 229.9 L 456.4 270.1" fill="none" stroke="#37474f" stroke-width="1.3" stroke-dasharray="7,4" marker-end="url(#arr-dash)" />
  <text x="494.376474203063" y="250.0" text-anchor="middle" font-size="11" font-family="Arial, sans-serif" fill="#444444" font-style="italic">«include»</text>
  <path d="M 456.4 329.9 L 456.4 370.1" fill="none" stroke="#37474f" stroke-width="1.3" stroke-dasharray="7,4" marker-end="url(#arr-dash)" />
  <text x="494.376474203063" y="350.0" text-anchor="middle" font-size="11" font-family="Arial, sans-serif" fill="#444444" font-style="italic">«include»</text>
  <path d="M 456.4 429.9 L 456.4 470.1" fill="none" stroke="#37474f" stroke-width="1.3" stroke-dasharray="7,4" marker-end="url(#arr-dash)" />
  <text x="494.376474203063" y="450.0" text-anchor="middle" font-size="11" font-family="Arial, sans-serif" fill="#444444" font-style="italic">«include»</text>
  <path d="M 486.6 475.9 L 643.4 419.1" fill="none" stroke="#37474f" stroke-width="1.3" stroke-dasharray="7,4" marker-end="url(#arr-dash)" />
  <text x="565.0" y="437.5" text-anchor="middle" font-size="11" font-family="Arial, sans-serif" fill="#444444" font-style="italic">«extend»</text>
</svg>